<?xml version="1.0" encoding="utf-8"?>
<!-- Generator: Adobe Illustrator 15.0.0, SVG Export Plug-In . SVG Version: 6.00 Build 0)  -->
<!DOCTYPE svg PUBLIC "-//W3C//DTD SVG 1.1//EN" "http://www.w3.org/Graphics/SVG/1.1/DTD/svg11.dtd">
<svg version="1.1" id="Capa_1" xmlns="http://www.w3.org/2000/svg" xmlns:xlink="http://www.w3.org/1999/xlink" x="0px" y="0px"
	 width="47px" height="47px" viewBox="0 0 47 47" enable-background="new 0 0 47 47" xml:space="preserve">
<g>
	<g id="Layer_1_27_">
		<g>
			<path fill="#363636" d="M2.177,25.28v17.385c0,1.136,0.921,2.057,2.058,2.057h4.109c1.134,0,2.057-0.921,2.057-2.057V25.276
				c-0.002-1.134-0.923-2.053-2.057-2.054l-4.109,0.001C3.099,23.223,2.177,24.145,2.177,25.28z M5.873,40.188
				c0.658-0.661,1.727-0.661,2.385,0c0.659,0.659,0.659,1.725,0,2.386c-0.658,0.659-1.727,0.659-2.385,0
				C5.215,41.914,5.215,40.847,5.873,40.188z"/>
			<path fill="#363636" d="M12.731,25.13c-0.076,0.146-0.118,0.308-0.117,0.476v15.609c0.001,0.568,0.46,1.03,1.027,1.03
				c0,0,4.047,0,15.127,0c11.078,0,13.998-0.005,13.998-0.005c1.137,0,2.056-1.204,2.056-2.695c0-1.493-0.921-2.701-2.056-2.699
				c1.135-0.002,2.056-1.207,2.056-2.7c0-1.485-0.919-2.693-2.056-2.695c1.137,0.003,2.056-1.207,2.056-2.695
				c0.001-1.489-0.919-2.699-2.056-2.699c1.137,0.002,2.056-1.207,2.056-2.696c0-4.305-2.861-2.665-9.725-2.678
				c-4.988-0.009-9.349-1.346-9.349-3.783c0-3.093,0.702-9.348,0-11.246c-0.317-0.857-1.405-3.374-4.217-3.374
				s-4.357,0.774-4.217,2.25c0.245,2.588,0.945,3.916,1.124,6.537C18.931,18.304,12.732,25.13,12.731,25.13z"/>
		</g>
	</g>
</g>
</svg>
