<?xml version="1.0" encoding="utf-8"?>
<!-- Generator: Adobe Illustrator 15.0.0, SVG Export Plug-In . SVG Version: 6.00 Build 0)  -->
<!DOCTYPE svg PUBLIC "-//W3C//DTD SVG 1.1//EN" "http://www.w3.org/Graphics/SVG/1.1/DTD/svg11.dtd">
<svg version="1.1" id="Capa_1" xmlns="http://www.w3.org/2000/svg" xmlns:xlink="http://www.w3.org/1999/xlink" x="0px" y="0px"
	 width="270px" height="261.5px" viewBox="0 -111.5 270 261.5" enable-background="new 0 -111.5 270 261.5" xml:space="preserve">
<g>
	<g id="Layer_5_87_">
		<g>
			<path fill="#363636" d="M75.475,59.254c-3.791-3.79-5.22-1.887-6.062-1.043c-21.835,21.834-41.219,74.516-30.972,69.374
				c37.306-18.731,43.521-13.155,65.355-34.987c0.843-0.844,2.785-2.236-1.117-6.139L75.475,59.254z"/>
			<path fill="#363636" d="M193.182,58.96c-0.992-3.147,1.082-4.666,1.953-5.61c48.191-52.025,78.819-121.343,56.123-144.04
				c-22.577-22.576-89.758,8.946-141.769,56.788c-1.028,0.948-3.058,2.743-6.685,1.985l-16.206-3.859
				c-4.5-1.069-10.857,0.728-14.127,3.999L13.008,27.687c-3.271,3.271-2.209,6.532,2.361,7.251l43.008,6.759
				c4.569,0.719,10.982-1.369,14.253-4.64c0,0,2.218-2.228,4.448,0.004c12.301,12.297,35.157,35.152,46.876,46.875
				c2.329,2.326,0.099,4.543,0.099,4.543c-3.272,3.272-5.359,9.684-4.639,14.253l6.757,43.006c0.718,4.573,3.982,5.634,7.253,2.364
				l59.462-59.464c3.27-3.271,5.067-9.626,3.997-14.125L193.182,58.96z M179.868-17.862c-10.073-10.071-10.073-26.399,0-36.468
				c10.069-10.071,26.397-10.071,36.47,0c10.07,10.068,10.07,26.397,0,36.467C206.266-7.79,189.938-7.79,179.868-17.862z"/>
		</g>
	</g>
</g>
</svg>
