<?xml version="1.0" encoding="utf-8"?>
<!-- Generator: Adobe Illustrator 16.0.0, SVG Export Plug-In . SVG Version: 6.00 Build 0)  -->
<!DOCTYPE svg PUBLIC "-//W3C//DTD SVG 1.1//EN" "http://www.w3.org/Graphics/SVG/1.1/DTD/svg11.dtd">
<svg version="1.1" id="Capa_1" xmlns="http://www.w3.org/2000/svg" xmlns:xlink="http://www.w3.org/1999/xlink" x="0px" y="0px"
	 width="32px" height="32px" viewBox="203.267 203.267 32 32" enable-background="new 203.267 203.267 32 32" xml:space="preserve">
<g>
	<path fill="#FFFFFF" d="M231.446,212.207c-1.258-2.155-2.965-3.861-5.119-5.119c-2.155-1.258-4.508-1.886-7.061-1.886
		c-2.552,0-4.905,0.628-7.061,1.886s-3.861,2.964-5.119,5.119s-1.887,4.509-1.887,7.061c0,2.551,0.629,4.905,1.886,7.06
		c1.258,2.155,2.964,3.861,5.12,5.119c2.155,1.259,4.508,1.887,7.06,1.887c2.551,0,4.906-0.628,7.061-1.887
		c2.154-1.258,3.861-2.964,5.119-5.119s1.886-4.509,1.886-7.06C233.332,216.715,232.704,214.362,231.446,212.207z M219.266,207.252
		c3.029,0,5.672,1.001,7.93,3.004l-0.229,0.32c-0.092,0.129-0.321,0.375-0.687,0.742c-0.366,0.366-0.767,0.714-1.2,1.043
		c-0.434,0.33-1.021,0.706-1.768,1.126c-0.744,0.421-1.538,0.791-2.381,1.108c-1.404-2.589-2.905-4.921-4.505-6.997
		C217.392,207.368,218.338,207.252,219.266,207.252z M209.853,211.812c1.172-1.477,2.601-2.613,4.286-3.406
		c1.514,2.015,3.003,4.322,4.468,6.923c-3.712,0.977-7.411,1.465-11.099,1.465C207.899,214.951,208.681,213.29,209.853,211.812z
		 M208.058,223.599c-0.538-1.373-0.806-2.817-0.806-4.332c0-0.171,0.006-0.299,0.019-0.385c4.42,0,8.529-0.567,12.327-1.703
		c0.39,0.757,0.714,1.435,0.97,2.033c-0.049,0.024-0.128,0.051-0.237,0.082c-0.11,0.031-0.189,0.052-0.239,0.064l-0.677,0.238
		c-0.464,0.171-1.072,0.464-1.822,0.879c-0.751,0.416-1.547,0.909-2.391,1.484c-0.842,0.573-1.712,1.334-2.609,2.28
		c-0.897,0.946-1.651,1.962-2.262,3.049C209.352,226.202,208.594,224.973,208.058,223.599z M219.266,231.282
		c-2.857,0-5.409-0.916-7.656-2.747l0.275,0.201c0.427-0.94,1.056-1.844,1.886-2.71c0.831-0.867,1.63-1.567,2.399-2.099
		c0.77-0.53,1.605-1.031,2.509-1.502c0.903-0.47,1.52-0.769,1.85-0.896s0.593-0.229,0.787-0.303l0.037-0.019h0.036
		c1.196,3.139,2.052,6.179,2.564,9.121C222.44,230.965,220.879,231.282,219.266,231.282z M229.377,225.76
		c-0.904,1.398-2.034,2.556-3.389,3.471c-0.5-2.809-1.281-5.672-2.345-8.59c2.43-0.379,4.927-0.201,7.491,0.53
		C230.866,222.832,230.279,224.361,229.377,225.76z M231.099,219.103c-0.123-0.024-0.275-0.052-0.459-0.083
		c-0.183-0.031-0.405-0.067-0.668-0.11c-0.263-0.042-0.557-0.082-0.879-0.119c-0.324-0.037-0.67-0.07-1.035-0.101
		c-0.367-0.031-0.758-0.055-1.172-0.073c-0.416-0.018-0.837-0.027-1.265-0.027c-0.427,0-0.876,0.012-1.346,0.037
		c-0.47,0.024-0.926,0.067-1.364,0.128c-0.037-0.061-0.083-0.162-0.138-0.302c-0.055-0.141-0.095-0.248-0.118-0.321
		c-0.232-0.513-0.501-1.093-0.807-1.74c0.843-0.342,1.646-0.735,2.409-1.182c0.764-0.445,1.372-0.842,1.831-1.19
		c0.458-0.349,0.892-0.718,1.301-1.108c0.408-0.391,0.674-0.662,0.796-0.815c0.123-0.153,0.239-0.302,0.349-0.449l0.019-0.018
		c1.782,2.173,2.691,4.676,2.729,7.509L231.099,219.103z"/>
</g>
</svg>
