<?xml version="1.0" encoding="utf-8"?>
<!-- Generator: Adobe Illustrator 16.0.0, SVG Export Plug-In . SVG Version: 6.00 Build 0)  -->
<!DOCTYPE svg PUBLIC "-//W3C//DTD SVG 1.1//EN" "http://www.w3.org/Graphics/SVG/1.1/DTD/svg11.dtd">
<svg version="1.1" id="Capa_1" xmlns="http://www.w3.org/2000/svg" xmlns:xlink="http://www.w3.org/1999/xlink" x="0px" y="0px"
	 width="32.003px" height="32px" viewBox="289.999 380 32.003 32" enable-background="new 289.999 380 32.003 32"
	 xml:space="preserve">
<g>
	<g>
		<g>
			<path fill="#FFFFFF" d="M306,381.305c-8.115,0-14.695,6.58-14.695,14.695s6.58,14.695,14.695,14.695s14.695-6.58,14.695-14.695
				C320.695,387.883,314.115,381.305,306,381.305z M309.799,395.998L307.391,396l-0.002,8.817h-3.305V396h-2.204v-3.038l2.204-0.001
				l-0.003-1.79c0-2.479,0.672-3.988,3.591-3.988h2.432v3.04h-1.521c-1.138,0-1.192,0.424-1.192,1.216l-0.004,1.521h2.732
				L309.799,395.998z"/>
		</g>
	</g>
</g>
</svg>
