<?xml version="1.0" encoding="utf-8"?>
<!-- Generator: Adobe Illustrator 15.0.0, SVG Export Plug-In . SVG Version: 6.00 Build 0)  -->
<!DOCTYPE svg PUBLIC "-//W3C//DTD SVG 1.1//EN" "http://www.w3.org/Graphics/SVG/1.1/DTD/svg11.dtd">
<svg version="1.1" id="Capa_1" xmlns="http://www.w3.org/2000/svg" xmlns:xlink="http://www.w3.org/1999/xlink" x="0px" y="0px"
	 width="120.166px" height="120.166px" viewBox="0 0 120.166 120.166" enable-background="new 0 0 120.166 120.166"
	 xml:space="preserve">
<g>
	<g>
		<circle fill="#363636" cx="19.718" cy="39.704" r="9.289"/>
		<path fill="#363636" d="M37.786,79.604c-0.25-2.149-2.07-3.771-4.234-3.771H33.55l-7.389,0.006V65.685
			c2.479,2.174,5.281,3.545,8.941,3.545c2.232,0,4.787-0.513,7.777-1.656c1.861-0.713,2.791-2.797,2.078-4.657
			c-0.711-1.858-2.797-2.789-4.656-2.078c-7.281,2.789-8.717,1.231-15.113-7.511c-0.014-0.02-0.031-0.032-0.047-0.052
			c-1.225-1.913-3.373-3.202-5.426-3.705c0,0-0.977-0.294-2.018-0.271c-0.996,0.022-2.105,0.255-2.105,0.255l-0.027,0.004
			c-3.125,0.765-6.453,3.311-6.453,7.131l0.002,20.503c0,4.457,4.426,7.215,8.523,7.213c0.229,0,0.457-0.021,0.686-0.035
			l11.434-0.01l2.439,21.056c0.252,2.171,2.096,3.771,4.229,3.771c0.164,0,0.33-0.01,0.498-0.028
			c2.336-0.271,4.014-2.388,3.742-4.726L37.786,79.604z"/>
		<path fill="#363636" d="M28.632,89.194c0-1.99-1.615-3.605-3.607-3.605H7.212V56.985c0-1.99-1.615-3.605-3.607-3.605
			S0,54.995,0,56.985v32.209c0,1.32,0.713,2.475,1.771,3.104c-0.688,1.227-1.08,2.637-1.08,4.139v10.084
			c0,1.668,1.352,3.02,3.018,3.02c1.668,0,3.021-1.352,3.021-3.02V96.435c0-1.361,1.107-2.471,2.471-2.471h10.082
			c1.361,0,2.471,1.107,2.471,2.471v10.084c0,1.668,1.352,3.021,3.02,3.021s3.02-1.353,3.02-3.021V96.435
			c0-1.475-0.377-2.861-1.041-4.072C27.87,91.75,28.632,90.562,28.632,89.194z"/>
		<circle fill="#363636" cx="100.444" cy="39.704" r="9.289"/>
		<path fill="#363636" d="M102.526,84.403c4.102,0,8.523-2.756,8.523-7.213V56.688c0-3.82-3.326-6.366-6.451-7.131l-0.025-0.004
			c0,0-1.111-0.232-2.105-0.255c-1.041-0.023-2.018,0.271-2.018,0.271c-2.055,0.503-4.201,1.792-5.428,3.705
			c-0.016,0.02-0.031,0.032-0.047,0.052c-6.396,8.743-7.832,10.3-15.113,7.511c-1.859-0.711-3.943,0.219-4.656,2.078
			c-0.711,1.859,0.219,3.943,2.08,4.656c2.988,1.146,5.543,1.656,7.775,1.656c3.66,0,6.461-1.371,8.941-3.545v10.154l-7.389-0.006
			c-0.002,0-0.002,0-0.004,0c-2.164,0-3.984,1.621-4.232,3.771L79.5,104.431c-0.271,2.34,1.403,4.454,3.744,4.727
			c0.166,0.02,0.33,0.027,0.493,0.027c2.136,0,3.978-1.601,4.229-3.771l2.441-21.056l11.434,0.009
			C102.067,84.384,102.3,84.403,102.526,84.403z"/>
		<path fill="#363636" d="M120.166,89.194V56.985c0-1.99-1.615-3.605-3.604-3.605c-1.992,0-3.606,1.615-3.606,3.605v28.604H95.144
			c-1.992,0-3.607,1.615-3.607,3.605c0,1.365,0.76,2.556,1.879,3.166c-0.662,1.212-1.039,2.6-1.039,4.072v10.084
			c0,1.668,1.352,3.021,3.02,3.021c1.666,0,3.021-1.353,3.021-3.021V96.435c0-1.361,1.105-2.471,2.473-2.471h10.08
			c1.363,0,2.473,1.107,2.473,2.471v10.084c0,1.668,1.352,3.021,3.019,3.021c1.668,0,3.021-1.353,3.021-3.021V96.435
			c0-1.5-0.394-2.91-1.08-4.138C119.454,91.668,120.166,90.517,120.166,89.194z"/>
		<path fill="#363636" d="M82.837,73.431c0-1.906-1.547-3.455-3.455-3.455H39.3c-1.908,0-3.455,1.549-3.455,3.455
			c0,1.908,1.547,3.455,3.455,3.455h4.74v30.686h30.602V76.886h4.74C81.29,76.886,82.837,75.339,82.837,73.431z"/>
		<path fill="#363636" d="M35.541,34.752h0.834l-2.061,4.971l5.864-4.971h5.741v-2.443c0-1.443,1.171-2.615,2.616-2.615h23.258
			v-16.45c0-1.445-1.171-2.617-2.614-2.617H35.541c-1.445,0-2.616,1.172-2.616,2.617v18.892
			C32.925,33.581,34.096,34.752,35.541,34.752z M60.372,19.108c1.393,0,2.52,1.129,2.52,2.52c0,1.392-1.127,2.52-2.52,2.52
			c-1.391,0-2.519-1.128-2.519-2.52S58.98,19.108,60.372,19.108z M52.497,19.108c1.392,0,2.519,1.129,2.519,2.52
			c0,1.392-1.127,2.52-2.519,2.52c-1.391,0-2.519-1.128-2.519-2.52S51.106,19.108,52.497,19.108z M44.347,19.108
			c1.391,0,2.519,1.129,2.519,2.52c0,1.392-1.128,2.52-2.519,2.52c-1.391,0-2.519-1.128-2.519-2.52S42.956,19.108,44.347,19.108z"/>
		<path fill="#363636" d="M47.871,34.262v18.893c0,1.444,1.173,2.615,2.616,2.615h29l5.865,4.97l-2.062-4.97h0.835
			c1.446,0,2.617-1.171,2.617-2.615V34.262c0-1.445-1.171-2.616-2.617-2.616H50.487C49.044,31.646,47.871,32.817,47.871,34.262z
			 M75.317,40.608c1.393,0,2.521,1.129,2.521,2.52c0,1.392-1.128,2.52-2.521,2.52c-1.391,0-2.519-1.128-2.519-2.52
			S73.929,40.608,75.317,40.608z M67.442,40.608c1.394,0,2.521,1.129,2.521,2.52c0,1.392-1.127,2.52-2.521,2.52
			c-1.391,0-2.519-1.128-2.519-2.52S66.054,40.608,67.442,40.608z M59.294,40.608c1.391,0,2.52,1.129,2.52,2.52
			c0,1.392-1.127,2.52-2.52,2.52c-1.392,0-2.519-1.128-2.519-2.52S57.903,40.608,59.294,40.608z"/>
	</g>
</g>
</svg>
