<?xml version="1.0" encoding="utf-8"?>
<!-- Generator: Adobe Illustrator 16.0.0, SVG Export Plug-In . SVG Version: 6.00 Build 0)  -->
<!DOCTYPE svg PUBLIC "-//W3C//DTD SVG 1.1//EN" "http://www.w3.org/Graphics/SVG/1.1/DTD/svg11.dtd">
<svg version="1.1" id="Capa_1" xmlns="http://www.w3.org/2000/svg" xmlns:xlink="http://www.w3.org/1999/xlink" x="0px" y="0px"
	 width="32px" height="32px" viewBox="203.274 203.274 32 32" enable-background="new 203.274 203.274 32 32" xml:space="preserve">
<g>
	<path fill="#FFFFFF" d="M232.331,212.073c-1.348-2.311-3.178-4.14-5.487-5.488c-2.312-1.349-4.834-2.022-7.571-2.022
		c-2.736,0-5.26,0.674-7.57,2.022c-2.311,1.349-4.14,3.178-5.489,5.488c-1.348,2.311-2.022,4.834-2.022,7.57
		c0,3.286,0.959,6.241,2.877,8.867c1.917,2.624,4.396,4.44,7.433,5.448c0.354,0.065,0.615,0.02,0.785-0.138s0.255-0.353,0.255-0.588
		c0-0.039-0.003-0.394-0.01-1.061c-0.007-0.668-0.01-1.25-0.01-1.747l-0.452,0.077c-0.288,0.053-0.651,0.075-1.09,0.069
		s-0.893-0.052-1.365-0.138c-0.471-0.085-0.91-0.281-1.316-0.589c-0.405-0.308-0.693-0.71-0.863-1.207l-0.197-0.452
		c-0.131-0.301-0.337-0.636-0.619-1.001c-0.281-0.367-0.566-0.616-0.854-0.746l-0.138-0.1c-0.092-0.065-0.176-0.144-0.255-0.234
		c-0.079-0.093-0.138-0.184-0.177-0.276c-0.039-0.091-0.006-0.167,0.099-0.226c0.104-0.059,0.294-0.088,0.569-0.088l0.393,0.059
		c0.262,0.053,0.586,0.209,0.972,0.471s0.704,0.604,0.952,1.021c0.302,0.536,0.665,0.946,1.09,1.228
		c0.425,0.282,0.854,0.422,1.286,0.422c0.433,0,0.806-0.032,1.12-0.099c0.314-0.064,0.608-0.163,0.883-0.294
		c0.118-0.877,0.439-1.552,0.962-2.022c-0.746-0.078-1.417-0.197-2.013-0.354c-0.596-0.157-1.211-0.413-1.846-0.766
		c-0.635-0.354-1.162-0.792-1.581-1.315c-0.419-0.525-0.763-1.212-1.031-2.063c-0.269-0.851-0.403-1.832-0.403-2.945
		c0-1.584,0.518-2.933,1.552-4.045c-0.485-1.191-0.439-2.526,0.137-4.006c0.379-0.118,0.942-0.029,1.688,0.265
		c0.746,0.295,1.292,0.547,1.64,0.756c0.347,0.209,0.625,0.386,0.835,0.531c1.218-0.34,2.475-0.511,3.77-0.511
		c1.296,0,2.553,0.171,3.771,0.511l0.747-0.471c0.51-0.314,1.112-0.603,1.806-0.864c0.694-0.262,1.225-0.334,1.591-0.216
		c0.59,1.479,0.642,2.815,0.157,4.006c1.034,1.113,1.552,2.462,1.552,4.045c0,1.113-0.135,2.097-0.403,2.956
		c-0.268,0.857-0.614,1.544-1.04,2.062s-0.956,0.952-1.591,1.307c-0.635,0.353-1.25,0.608-1.847,0.766
		c-0.595,0.156-1.266,0.275-2.012,0.354c0.681,0.59,1.021,1.519,1.021,2.788v4.144c0,0.235,0.082,0.432,0.245,0.589
		c0.164,0.157,0.422,0.203,0.776,0.138c3.037-1.008,5.515-2.824,7.433-5.45c1.918-2.624,2.877-5.579,2.877-8.866
		C234.354,216.907,233.679,214.384,232.331,212.073z"/>
</g>
</svg>
