<?xml version="1.0" encoding="utf-8"?>
<!-- Generator: Adobe Illustrator 15.0.0, SVG Export Plug-In . SVG Version: 6.00 Build 0)  -->
<!DOCTYPE svg PUBLIC "-//W3C//DTD SVG 1.1//EN" "http://www.w3.org/Graphics/SVG/1.1/DTD/svg11.dtd">
<svg version="1.1" id="Layer_1" xmlns="http://www.w3.org/2000/svg" xmlns:xlink="http://www.w3.org/1999/xlink" x="0px" y="0px"
	 width="140.667px" height="144px" viewBox="0 0 140.667 144" enable-background="new 0 0 140.667 144" xml:space="preserve">
<title>Apple Logo White</title>
<title>Layer 1</title>
<g id="PLAY_2_">
	<g>
		<defs>
			<path id="SVGID_1_" d="M107.621,51.274l-29.619-17.1c0,0-53.959-31.157-57.131-32.989c-3.171-1.832-6.333-0.722-6.333,3.105
				c0,6.376,0,66.524,0,66.524s0,65.002,0,67.874c0,2.87,2.26,4.107,5.016,2.517c2.754-1.592,58.448-33.749,58.448-33.749
				l29.618-17.099c0,0,25.13-14.509,28.471-16.436c3.341-1.931,3.02-4.576,0.2-6.094C133.473,66.308,107.621,51.274,107.621,51.274z
				"/>
		</defs>
		<clipPath id="SVGID_2_">
			<use xlink:href="#SVGID_1_"  overflow="visible"/>
		</clipPath>
		
			<linearGradient id="SVGID_3_" gradientUnits="userSpaceOnUse" x1="-252.6914" y1="125.8125" x2="-252.6914" y2="113.6865" gradientTransform="matrix(12 0 0 -12 3083.5278 1507.8125)">
			<stop  offset="0" style="stop-color:#257CB0"/>
			<stop  offset="0.2863" style="stop-color:#4A93B5"/>
			<stop  offset="0.767" style="stop-color:#78BCBB"/>
			<stop  offset="1" style="stop-color:#89CFBD"/>
		</linearGradient>
		<polygon clip-path="url(#SVGID_2_)" fill="url(#SVGID_3_)" points="14.539,-1.939 14.539,70.815 14.539,143.571 87.914,70.816 		
			"/>
	</g>
	<g>
		<defs>
			<path id="SVGID_4_" d="M107.621,51.274l-29.619-17.1c0,0-53.959-31.157-57.131-32.989c-3.171-1.832-6.333-0.722-6.333,3.105
				c0,6.376,0,66.524,0,66.524s0,65.002,0,67.874c0,2.87,2.26,4.107,5.016,2.517c2.754-1.592,58.448-33.749,58.448-33.749
				l29.618-17.099c0,0,25.13-14.509,28.471-16.436c3.341-1.931,3.02-4.576,0.2-6.094C133.473,66.308,107.621,51.274,107.621,51.274z
				"/>
		</defs>
		<clipPath id="SVGID_5_">
			<use xlink:href="#SVGID_4_"  overflow="visible"/>
		</clipPath>
		
			<linearGradient id="SVGID_6_" gradientUnits="userSpaceOnUse" x1="-255.749" y1="122.8027" x2="-247.9922" y2="122.8027" gradientTransform="matrix(12 0 0 -12 3083.5278 1507.8125)">
			<stop  offset="0" style="stop-color:#52C1AD"/>
			<stop  offset="1" style="stop-color:#DEE89A"/>
		</linearGradient>
		<polygon clip-path="url(#SVGID_5_)" fill="url(#SVGID_6_)" points="107.621,51.274 78.001,34.174 14.539,-2.469 14.539,-1.939 
			87.914,70.816 		"/>
	</g>
	<g>
		<defs>
			<path id="SVGID_7_" d="M107.621,51.274l-29.619-17.1c0,0-53.959-31.157-57.131-32.989c-3.171-1.832-6.333-0.722-6.333,3.105
				c0,6.376,0,66.524,0,66.524s0,65.002,0,67.874c0,2.87,2.26,4.107,5.016,2.517c2.754-1.592,58.448-33.749,58.448-33.749
				l29.618-17.099c0,0,25.13-14.509,28.471-16.436c3.341-1.931,3.02-4.576,0.2-6.094C133.473,66.308,107.621,51.274,107.621,51.274z
				"/>
		</defs>
		<clipPath id="SVGID_8_">
			<use xlink:href="#SVGID_7_"  overflow="visible"/>
		</clipPath>
		
			<linearGradient id="SVGID_9_" gradientUnits="userSpaceOnUse" x1="-251.8706" y1="119.75" x2="-251.8706" y2="113.6426" gradientTransform="matrix(12 0 0 -12 3083.5278 1507.8125)">
			<stop  offset="0" style="stop-color:#EC413D"/>
			<stop  offset="0.1668" style="stop-color:#DA4452"/>
			<stop  offset="0.5748" style="stop-color:#B0487A"/>
			<stop  offset="0.8619" style="stop-color:#954A92"/>
			<stop  offset="1" style="stop-color:#8A4A9D"/>
		</linearGradient>
		<polygon clip-path="url(#SVGID_8_)" fill="url(#SVGID_9_)" points="14.539,143.571 14.539,144.101 78.001,107.456 107.62,90.356 
			87.914,70.816 		"/>
	</g>
	<g>
		<defs>
			<path id="SVGID_10_" d="M107.621,51.274l-29.619-17.1c0,0-53.959-31.157-57.131-32.989c-3.171-1.832-6.333-0.722-6.333,3.105
				c0,6.376,0,66.524,0,66.524s0,65.002,0,67.874c0,2.87,2.26,4.107,5.016,2.517c2.754-1.592,58.448-33.749,58.448-33.749
				l29.618-17.099c0,0,25.13-14.509,28.471-16.436c3.341-1.931,3.02-4.576,0.2-6.094C133.473,66.308,107.621,51.274,107.621,51.274z
				"/>
		</defs>
		<clipPath id="SVGID_11_">
			<use xlink:href="#SVGID_10_"  overflow="visible"/>
		</clipPath>
		
			<linearGradient id="SVGID_12_" gradientUnits="userSpaceOnUse" x1="-247.4028" y1="121.3779" x2="-247.4028" y2="118.1211" gradientTransform="matrix(12 0 0 -12 3083.5278 1507.8125)">
			<stop  offset="0" style="stop-color:#F58879"/>
			<stop  offset="0.1194" style="stop-color:#F69079"/>
			<stop  offset="0.7128" style="stop-color:#FCB877"/>
			<stop  offset="1" style="stop-color:#FEC874"/>
		</linearGradient>
		<polygon clip-path="url(#SVGID_11_)" fill="url(#SVGID_12_)" points="107.621,51.274 87.914,70.816 107.62,90.356 141.468,70.815 
					"/>
	</g>
</g>
</svg>
