<?xml version="1.0" encoding="utf-8"?>
<!-- Generator: Adobe Illustrator 15.0.0, SVG Export Plug-In . SVG Version: 6.00 Build 0)  -->
<!DOCTYPE svg PUBLIC "-//W3C//DTD SVG 1.1//EN" "http://www.w3.org/Graphics/SVG/1.1/DTD/svg11.dtd">
<svg version="1.1" id="Layer_1" xmlns="http://www.w3.org/2000/svg" xmlns:xlink="http://www.w3.org/1999/xlink" x="0px" y="0px"
	 width="323px" height="71px" viewBox="0 0 323 71" enable-background="new 0 0 323 71" xml:space="preserve">
<path fill="#FFFFFF" stroke="#000000" stroke-width="4" stroke-linecap="round" stroke-linejoin="round" stroke-miterlimit="10" d="
	M3.269,40.289"/>
<path fill="#FFFFFF" stroke="#000000" stroke-width="4" stroke-linecap="round" stroke-linejoin="round" stroke-miterlimit="10" d="
	M5.339,38.217"/>
<polygon stroke="#FFFFFF" stroke-width="4" stroke-miterlimit="10" points="17.598,63.96 0,33.479 17.598,3 52.792,3 70.39,33.479 
	52.792,63.96 "/>
<polyline stroke="#FFFFFF" stroke-width="5" stroke-miterlimit="10" points="26.457,17.039 17.598,3 0.625,32.314 35.001,32.314 
	17.328,62.612 "/>
<polyline stroke="#FFFFFF" stroke-width="5" stroke-miterlimit="10" points="52.792,3 35.778,31.925 52.792,63.96 "/>
<g>
	<path d="M85.828,18.95c4.516,0,6.838,2.702,6.838,7.429v0.929h-4.39v-1.225c0-2.11-0.845-2.912-2.322-2.912
		c-1.477,0-2.321,0.802-2.321,2.912c0,6.078,9.075,7.218,9.075,15.659c0,4.727-2.364,7.428-6.923,7.428
		c-4.558,0-6.922-2.701-6.922-7.428v-1.815h4.39v2.111c0,2.111,0.929,2.87,2.407,2.87c1.476,0,2.405-0.759,2.405-2.87
		c0-6.078-9.075-7.218-9.075-15.659C78.99,21.651,81.312,18.95,85.828,18.95z"/>
	<path d="M94.986,26.378c0-4.727,2.491-7.429,7.049-7.429c4.559,0,7.049,2.702,7.049,7.429v15.363c0,4.727-2.49,7.428-7.049,7.428
		c-4.558,0-7.049-2.701-7.049-7.428V26.378z M99.63,42.038c0,2.111,0.928,2.913,2.405,2.913c1.477,0,2.406-0.802,2.406-2.913V26.083
		c0-2.11-0.929-2.912-2.406-2.912c-1.477,0-2.405,0.802-2.405,2.912V42.038z"/>
	<path d="M116.723,32.414h5.995v4.222h-5.995v12.198h-4.642V19.287h12.282v4.221h-7.64V32.414z"/>
	<path d="M125.248,19.287H139.6v4.221h-4.855v25.325h-4.642V23.508h-4.854V19.287z"/>
	<path d="M151.923,33.09l-1.688,15.743h-6.373l-3.292-29.546h4.516l2.49,23.299l2.237-23.299h4.474l2.321,23.468l2.405-23.468h4.053
		l-3.292,29.546h-6.163L151.923,33.09z"/>
	<path d="M179.779,48.833h-4.686l-0.802-5.36h-5.699l-0.802,5.36h-4.262l4.727-29.546h6.795L179.779,48.833z M169.185,39.462h4.474
		l-2.237-14.941L169.185,39.462z"/>
	<path d="M191.638,48.833c-0.253-0.759-0.422-1.224-0.422-3.63v-4.642c0-2.744-0.928-3.757-3.038-3.757h-1.604v12.03h-4.644V19.287
		h7.007c4.812,0,6.88,2.236,6.88,6.795v2.321c0,3.04-0.971,5.022-3.038,5.994c2.32,0.971,3.08,3.208,3.08,6.29v4.558
		c0,1.435,0.043,2.49,0.506,3.588H191.638z M186.574,23.508v9.075h1.814c1.729,0,2.785-0.759,2.785-3.123v-2.913
		c0-2.111-0.717-3.039-2.363-3.039H186.574z"/>
	<path d="M203.541,31.738h6.374v4.221h-6.374v8.653h8.02v4.221h-12.663V19.287h12.663v4.221h-8.02V31.738z"/>
	<path d="M226.406,20.095c0.361,0,0.541,0.051,0.541,0.155l-0.834,4.302c-0.353,0.165-0.678,0.247-0.976,0.247h-0.403
		c-0.227,0-0.406-0.83-0.542-2.491c-1.702,0.32-3.043,0.691-4.022,1.115c-1.538,0.814-2.564,1.847-3.08,3.095
		c-0.66,1.341-0.99,3.384-0.99,6.128v2.059c0,4.116,0.149,6.474,0.449,7.072c0.504,1.598,1.319,2.708,2.445,3.327
		c0.947,0.526,2.048,0.79,3.295,0.79c1.177,0,2.693-0.294,4.551-0.882c0.33,0.681,0.494,1.187,0.494,1.517v0.201
		c0,0.486-0.506,0.841-1.516,1.068c-1.744,0.691-3.395,1.037-4.953,1.037c-4.013,0-6.432-2.745-7.258-8.233
		c-0.165-1.424-0.247-2.817-0.247-4.179c0-2.827,0.324-6.504,0.975-11.034c0.103-0.69,0.677-1.588,1.718-2.692
		C218.137,20.961,221.588,20.095,226.406,20.095z"/>
	<path d="M229.068,20.296h0.479c0.435,0,0.732,0.032,0.898,0.094l0.435-0.047c2.701,0,5.307,0.625,7.814,1.873
		c1.959,1.249,2.939,2.801,2.939,4.658v0.497c0,2.723-1.65,4.854-4.952,6.39l-0.541,0.186c3.271,7.666,4.905,12.056,4.905,13.17
		v0.139c-0.165,0.826-0.707,1.238-1.625,1.238h-0.14c-0.134-0.072-0.66-1.187-1.578-3.342l-4.767-10.369l-1.315,0.155l0.094,13.603
		c0,0.196-0.228,0.294-0.682,0.294h-0.201c-0.826,0-1.579-0.114-2.259-0.341l0.046-0.293l0.109-27.655
		C228.769,20.379,228.883,20.296,229.068,20.296z M231.467,23.484l0.108,9.394c0.588,0,1.929-0.511,4.023-1.532
		c1.702-1.135,2.553-2.362,2.553-3.683v-0.341c0-1.95-1.935-3.213-5.802-3.792L231.467,23.484z"/>
	<path d="M244.279,20.219c0.506,0,1.177,0.099,2.013,0.294l0.046,7.181v20.01c0,0.754-0.165,1.13-0.495,1.13h-0.387
		c-0.805,0-1.454-0.145-1.95-0.434V20.513C243.6,20.317,243.856,20.219,244.279,20.219z"/>
	<path d="M255.499,20.125c3.487,0,5.648,0.8,6.484,2.399c0.681,0.97,1.197,2.652,1.548,5.045c0.506,3.601,0.758,6.546,0.758,8.836
		v0.789c0,5.602-1.682,9.28-5.044,11.034c-0.971,0.403-1.883,0.604-2.739,0.604h-0.31c-2.58,0-4.674-2.213-6.283-6.639
		c-1.136-3.858-1.702-7.603-1.702-11.235c0-5.653,1.815-9.167,5.447-10.539C254.483,20.225,255.098,20.125,255.499,20.125z
		 M251.011,29.906c0,3.673,0.631,7.552,1.889,11.637c0.907,2.394,2.208,3.591,3.9,3.591c1.712-0.186,2.662-0.485,2.847-0.897
		c0.495-0.34,0.929-1.14,1.301-2.399c0.392-1.31,0.588-3.141,0.588-5.493v-0.093c0-4.911-0.465-8.589-1.394-11.034
		c-0.857-1.527-1.971-2.29-3.342-2.29h-0.155c-1.373,0.123-2.755,0.737-4.147,1.841c-0.64,0.516-1.088,1.414-1.347,2.692
		C251.058,28.432,251.011,29.246,251.011,29.906z"/>
	<path d="M266.903,20.048c0.774,0.063,1.439,0.196,1.998,0.403l-0.155,25.705c4.972-0.402,8.453-0.656,10.445-0.759
		c0.123,0,0.221,0.464,0.295,1.394c-0.021,1.031-0.089,1.547-0.202,1.547l-13.077,0.495l-0.046-0.046V20.636
		C266.161,20.244,266.408,20.048,266.903,20.048z"/>
	<path d="M281.466,20.048c0.774,0.063,1.438,0.196,1.997,0.403l-0.154,25.705c4.972-0.402,8.453-0.656,10.445-0.759
		c0.123,0,0.221,0.464,0.294,1.394c-0.021,1.031-0.088,1.547-0.201,1.547l-13.077,0.495l-0.046-0.046V20.636
		C280.724,20.244,280.971,20.048,281.466,20.048z"/>
	<path d="M300.672,20.125c3.487,0,5.649,0.8,6.485,2.399c0.681,0.97,1.196,2.652,1.547,5.045c0.506,3.601,0.759,6.546,0.759,8.836
		v0.789c0,5.602-1.682,9.28-5.045,11.034c-0.971,0.403-1.883,0.604-2.739,0.604h-0.31c-2.58,0-4.674-2.213-6.283-6.639
		c-1.135-3.858-1.702-7.603-1.702-11.235c0-5.653,1.816-9.167,5.447-10.539C299.657,20.225,300.271,20.125,300.672,20.125z
		 M296.186,29.906c0,3.673,0.629,7.552,1.887,11.637c0.907,2.394,2.209,3.591,3.9,3.591c1.713-0.186,2.662-0.485,2.847-0.897
		c0.496-0.34,0.929-1.14,1.301-2.399c0.392-1.31,0.588-3.141,0.588-5.493v-0.093c0-4.911-0.464-8.589-1.393-11.034
		c-0.856-1.527-1.972-2.29-3.343-2.29h-0.155c-1.372,0.123-2.755,0.737-4.147,1.841c-0.639,0.516-1.088,1.414-1.347,2.692
		C296.23,28.432,296.186,29.246,296.186,29.906z"/>
</g>
</svg>
