<?xml version="1.0" encoding="utf-8"?>
<!-- Generator: Adobe Illustrator 16.0.0, SVG Export Plug-In . SVG Version: 6.00 Build 0)  -->
<!DOCTYPE svg PUBLIC "-//W3C//DTD SVG 1.1//EN" "http://www.w3.org/Graphics/SVG/1.1/DTD/svg11.dtd">
<svg version="1.1" id="Layer_1" xmlns="http://www.w3.org/2000/svg" xmlns:xlink="http://www.w3.org/1999/xlink" x="0px" y="0px"
	 width="289px" height="61px" viewBox="0 0 289 61" enable-background="new 0 0 289 61" xml:space="preserve">
<path fill="#FFFFFF" stroke="#000000" stroke-width="4" stroke-linecap="round" stroke-linejoin="round" stroke-miterlimit="10" d="
	M5.358,36.4"/>
<path fill="#FFFFFF" stroke="#000000" stroke-width="4" stroke-linecap="round" stroke-linejoin="round" stroke-miterlimit="10" d="
	M7.208,34.547"/>
<polygon points="18.172,57.57 2.434,30.311 18.172,3.05 49.648,3.05 65.387,30.311 49.648,57.57 "/>
<polyline fill="none" stroke="#FFFFFF" stroke-width="4" stroke-miterlimit="10" points="26.554,17.124 17.979,5.771 4.585,29.13 
	33.756,28.966 17.881,57.498 "/>
<polyline fill="none" stroke="#FFFFFF" stroke-width="4" stroke-miterlimit="10" points="50.814,2.666 33.764,29.026 50.715,58.637 
	"/>
<g>
	<path d="M79.194,17.314c4.041,0,6.114,2.416,6.114,6.645v0.831h-3.926v-1.096c0-1.888-0.754-2.605-2.076-2.605
		c-1.321,0-2.076,0.717-2.076,2.605c0,5.436,8.116,6.456,8.116,14.003c0,4.229-2.114,6.644-6.192,6.644
		c-4.076,0-6.19-2.415-6.19-6.644v-1.624h3.927v1.892c0,1.885,0.832,2.564,2.154,2.564c1.32,0,2.15-0.68,2.15-2.564
		c0-5.436-8.117-6.457-8.117-14.007C73.079,19.731,75.155,17.314,79.194,17.314z"/>
	<path d="M87.385,23.958c0-4.228,2.228-6.645,6.305-6.645c4.077,0,6.305,2.417,6.305,6.645v13.739c0,4.228-2.227,6.644-6.305,6.644
		c-4.076,0-6.305-2.416-6.305-6.644V23.958z M91.537,37.965c0,1.887,0.83,2.603,2.152,2.603c1.321,0,2.151-0.716,2.151-2.603V23.694
		c0-1.888-0.832-2.604-2.151-2.604c-1.32,0-2.152,0.717-2.152,2.604V37.965z"/>
	<path d="M106.825,29.356h5.361v3.774h-5.361v10.91h-4.151V17.615h10.984v3.775h-6.832L106.825,29.356L106.825,29.356z"/>
	<path d="M114.449,17.615h12.835v3.775h-4.342v22.65h-4.151v-22.65h-4.342L114.449,17.615L114.449,17.615z"/>
	<path d="M138.307,29.962l-1.508,14.079H131.1l-2.944-26.425h4.04l2.227,20.838l2-20.838h4.002l2.078,20.99l2.15-20.99h3.626
		l-2.947,26.425h-5.51L138.307,29.962z"/>
	<path d="M163.221,44.041h-4.189l-0.718-4.794h-5.095l-0.717,4.794h-3.812l4.226-26.425h6.077L163.221,44.041z M153.747,35.66h4.001
		l-1.999-13.361L153.747,35.66z"/>
	<path d="M173.828,44.041c-0.227-0.68-0.376-1.094-0.376-3.245v-4.152c0-2.454-0.835-3.358-2.717-3.358h-1.433v10.757h-4.154V17.616
		h6.269c4.303,0,6.152,2.001,6.152,6.079v2.076c0,2.719-0.871,4.493-2.715,5.361c2.073,0.868,2.753,2.868,2.753,5.626v4.076
		c0,1.284,0.038,2.227,0.455,3.208L173.828,44.041L173.828,44.041z M169.299,21.391v8.115h1.623c1.544,0,2.489-0.679,2.489-2.792
		v-2.604c0-1.888-0.642-2.718-2.111-2.718L169.299,21.391L169.299,21.391z"/>
	<path d="M184.472,28.753h5.698v3.775h-5.698v7.736h7.173v3.775h-11.325V17.616h11.325v3.775h-7.171L184.472,28.753L184.472,28.753z
		"/>
	<path d="M204.924,18.339c0.322,0,0.484,0.045,0.484,0.14l-0.751,3.848c-0.315,0.146-0.604,0.222-0.87,0.222h-0.361
		c-0.206,0-0.364-0.744-0.487-2.228c-1.522,0.287-2.721,0.617-3.597,0.996c-1.375,0.729-2.295,1.653-2.755,2.77
		c-0.591,1.199-0.886,3.025-0.886,5.48v1.842c0,3.683,0.133,5.789,0.401,6.325c0.45,1.429,1.181,2.421,2.188,2.978
		c0.846,0.467,1.832,0.705,2.946,0.705c1.051,0,2.407-0.265,4.071-0.79c0.294,0.608,0.441,1.06,0.441,1.357v0.18
		c0,0.431-0.455,0.752-1.355,0.955c-1.563,0.617-3.037,0.927-4.434,0.927c-3.589,0-5.751-2.454-6.49-7.363
		c-0.147-1.275-0.223-2.519-0.223-3.739c0-2.527,0.291-5.816,0.873-9.865c0.096-0.617,0.605-1.421,1.539-2.409
		C197.524,19.114,200.613,18.339,204.924,18.339z"/>
	<path d="M207.304,18.519h0.43c0.389,0,0.655,0.029,0.802,0.083l0.387-0.042c2.413,0,4.748,0.559,6.988,1.675
		c1.755,1.118,2.631,2.505,2.631,4.167v0.445c0,2.435-1.477,4.341-4.431,5.715l-0.48,0.167c2.924,6.854,4.387,10.781,4.387,11.778
		v0.124c-0.146,0.739-0.634,1.108-1.453,1.108h-0.122c-0.121-0.066-0.594-1.062-1.412-2.99l-4.263-9.272l-1.178,0.139l0.082,12.168
		c0,0.169-0.204,0.262-0.607,0.262h-0.182c-0.735,0-1.409-0.103-2.019-0.306l0.039-0.265l0.1-24.733
		C207.034,18.593,207.137,18.519,207.304,18.519z M209.45,21.37l0.096,8.403c0.525,0,1.722-0.456,3.598-1.371
		c1.522-1.015,2.285-2.111,2.285-3.294v-0.305c0-1.744-1.734-2.873-5.19-3.392L209.45,21.37z"/>
	<path d="M220.907,18.451c0.451,0,1.052,0.089,1.8,0.263l0.041,6.422v17.897c0,0.675-0.146,1.008-0.442,1.008h-0.347
		c-0.72,0-1.301-0.128-1.744-0.39V18.714C220.299,18.537,220.527,18.451,220.907,18.451z"/>
	<path d="M230.942,18.365c3.118,0,5.049,0.716,5.797,2.146c0.606,0.867,1.07,2.371,1.383,4.512c0.452,3.221,0.678,5.854,0.678,7.901
		v0.706c0,5.011-1.503,8.301-4.511,9.869c-0.872,0.357-1.688,0.539-2.452,0.539h-0.274c-2.31,0-4.184-1.979-5.617-5.938
		c-1.015-3.451-1.524-6.802-1.524-10.048c0-5.056,1.623-8.199,4.874-9.427C230.032,18.455,230.582,18.365,230.942,18.365z
		 M226.929,27.113c0,3.287,0.563,6.756,1.691,10.408c0.808,2.142,1.972,3.212,3.488,3.212c1.531-0.167,2.38-0.436,2.548-0.804
		c0.443-0.305,0.83-1.017,1.164-2.145c0.348-1.171,0.522-2.809,0.522-4.913v-0.08c0-4.395-0.413-7.684-1.243-9.87
		c-0.769-1.366-1.766-2.048-2.988-2.048h-0.142c-1.229,0.11-2.464,0.66-3.709,1.646c-0.572,0.462-0.971,1.265-1.205,2.408
		C226.97,25.796,226.929,26.523,226.929,27.113z"/>
	<path d="M241.141,18.296c0.693,0.057,1.289,0.176,1.787,0.36l-0.138,22.988c4.445-0.358,7.559-0.586,9.34-0.677
		c0.11,0,0.199,0.416,0.267,1.245c-0.022,0.921-0.082,1.384-0.182,1.384l-11.697,0.442l-0.041-0.042V18.819
		C240.479,18.474,240.698,18.296,241.141,18.296z"/>
	<path d="M254.165,18.296c0.693,0.057,1.286,0.176,1.785,0.36l-0.137,22.988c4.447-0.358,7.56-0.586,9.341-0.677
		c0.11,0,0.198,0.416,0.263,1.245c-0.02,0.921-0.078,1.384-0.179,1.384l-11.697,0.442l-0.039-0.042V18.819
		C253.504,18.474,253.722,18.296,254.165,18.296z"/>
	<path d="M271.341,18.365c3.12,0,5.055,0.716,5.803,2.146c0.606,0.867,1.065,2.371,1.382,4.512c0.452,3.221,0.679,5.854,0.679,7.901
		v0.706c0,5.011-1.505,8.301-4.514,9.869c-0.868,0.357-1.683,0.539-2.449,0.539h-0.277c-2.306,0-4.181-1.979-5.617-5.938
		c-1.013-3.451-1.523-6.802-1.523-10.048c0-5.056,1.623-8.199,4.874-9.427C270.437,18.455,270.984,18.365,271.341,18.365z
		 M267.331,27.113c0,3.287,0.562,6.756,1.688,10.408c0.811,2.142,1.975,3.212,3.489,3.212c1.529-0.167,2.383-0.436,2.546-0.804
		c0.445-0.305,0.832-1.017,1.164-2.145c0.351-1.171,0.525-2.809,0.525-4.913v-0.08c0-4.395-0.416-7.684-1.246-9.87
		c-0.766-1.366-1.766-2.048-2.988-2.048h-0.139c-1.229,0.11-2.466,0.66-3.712,1.646c-0.565,0.462-0.971,1.265-1.202,2.408
		C267.371,25.796,267.331,26.523,267.331,27.113z"/>
</g>
<polygon fill="#FFFFFF" points="28.412,15.781 25.759,19.834 22.293,15.327 25.581,12.553 "/>
</svg>
