<?xml version="1.0" encoding="utf-8"?>
<!-- Generator: Adobe Illustrator 15.0.0, SVG Export Plug-In  -->
<!DOCTYPE svg PUBLIC "-//W3C//DTD SVG 1.1//EN" "http://www.w3.org/Graphics/SVG/1.1/DTD/svg11.dtd" [
	<!ENTITY ns_flows "http://ns.adobe.com/Flows/1.0/">
]>
<svg version="1.1"
	 xmlns="http://www.w3.org/2000/svg" xmlns:xlink="http://www.w3.org/1999/xlink" xmlns:a="http://ns.adobe.com/AdobeSVGViewerExtensions/3.0/"
	 x="0px" y="0px" width="200px" height="35px" viewBox="-4.227 -4.231 200 35"
	 overflow="visible" enable-background="new -4.227 -4.231 200 35" xml:space="preserve">
<defs>
</defs>
<path fill="#FFFFFF" d="M5.734,0.194c3.719,0,5.63,2.224,5.63,6.116v0.764H7.75V6.067c0-1.737-0.695-2.397-1.911-2.397
	S3.927,4.33,3.927,6.067c0,5.004,7.472,5.943,7.472,12.893c0,3.893-1.946,6.116-5.699,6.116C1.946,25.076,0,22.852,0,18.959v-1.494
	h3.614v1.738c0,1.737,0.764,2.362,1.981,2.362c1.216,0,1.981-0.625,1.981-2.362c0-5.005-7.472-5.943-7.472-12.893
	C0.104,2.418,2.016,0.194,5.734,0.194z"/>
<path fill="#FFFFFF" d="M13.275,6.311c0-3.892,2.05-6.116,5.803-6.116c3.753,0,5.804,2.224,5.804,6.116v12.649
	c0,3.893-2.05,6.116-5.804,6.116c-3.753,0-5.803-2.224-5.803-6.116V6.311z M17.098,19.204c0,1.737,0.765,2.397,1.98,2.397
	c1.216,0,1.981-0.66,1.981-2.397V6.067c0-1.737-0.765-2.397-1.981-2.397c-1.216,0-1.98,0.66-1.98,2.397V19.204z"/>
<path fill="#FFFFFF" d="M31.171,11.28h4.935v3.476h-4.935v10.043h-3.822V0.472h10.113v3.476h-6.291V11.28z"/>
<path fill="#FFFFFF" d="M38.191,0.472h11.815v3.476H46.01v20.851h-3.823V3.948h-3.996V0.472z"/>
<path fill="#FFFFFF" d="M60.153,11.836l-1.39,12.962h-5.247L50.805,0.472h3.719l2.05,19.183l1.842-19.183H62.1l1.911,19.321
	l1.981-19.321h3.336l-2.71,24.326h-5.074L60.153,11.836z"/>
<path fill="#FFFFFF" d="M83.089,24.798h-3.857l-0.66-4.413H73.88l-0.661,4.413H69.71l3.892-24.326h5.595L83.089,24.798z
	 M74.366,17.083h3.684L76.208,4.781L74.366,17.083z"/>
<path fill="#FFFFFF" d="M92.854,24.798c-0.208-0.626-0.348-1.008-0.348-2.989v-3.822c0-2.259-0.764-3.093-2.501-3.093h-1.321v9.904
	h-3.823V0.472h5.769c3.962,0,5.665,1.842,5.665,5.595v1.912c0,2.502-0.799,4.135-2.502,4.935c1.912,0.8,2.537,2.641,2.537,5.177
	v3.754c0,1.182,0.035,2.05,0.417,2.954H92.854z M88.684,3.948v7.471h1.494c1.425,0,2.294-0.625,2.294-2.572V6.45
	c0-1.738-0.591-2.502-1.946-2.502H88.684z"/>
<path fill="#FFFFFF" d="M101.958,10.724h5.247v3.475h-5.247v7.124h6.603v3.476H98.135V0.472h10.426v3.476h-6.603V10.724z"/>
<path fill="#FFFFFF" d="M121.306,0.04c0.312,0,0.467,0.044,0.467,0.133l-0.72,3.707c-0.303,0.142-0.582,0.213-0.84,0.213h-0.347
	c-0.196,0-0.352-0.715-0.467-2.146c-1.467,0.276-2.622,0.596-3.466,0.96c-1.325,0.703-2.209,1.591-2.653,2.667
	c-0.569,1.156-0.854,2.916-0.854,5.28v1.773c0,3.547,0.129,5.578,0.387,6.093c0.435,1.378,1.138,2.333,2.106,2.866
	c0.817,0.454,1.764,0.681,2.84,0.681c1.013,0,2.319-0.254,3.92-0.76c0.284,0.586,0.427,1.021,0.427,1.306v0.174
	c0,0.418-0.437,0.725-1.307,0.92c-1.503,0.596-2.925,0.894-4.267,0.894c-3.458,0-5.542-2.364-6.253-7.093
	c-0.143-1.227-0.213-2.427-0.213-3.6c0-2.436,0.279-5.604,0.84-9.506c0.088-0.595,0.581-1.369,1.479-2.32
	C114.182,0.787,117.156,0.04,121.306,0.04z"/>
<path fill="#FFFFFF" d="M123.6,0.213h0.413c0.373,0,0.631,0.026,0.773,0.08l0.373-0.04c2.328,0,4.573,0.538,6.732,1.613
	c1.688,1.076,2.533,2.413,2.533,4.013v0.427c0,2.347-1.422,4.182-4.267,5.506l-0.466,0.16c2.817,6.604,4.226,10.386,4.226,11.346
	v0.12c-0.142,0.712-0.608,1.066-1.399,1.066h-0.12c-0.116-0.062-0.569-1.021-1.36-2.88l-4.105-8.932l-1.134,0.133l0.08,11.719
	c0,0.169-0.195,0.254-0.587,0.254h-0.173c-0.712,0-1.36-0.098-1.946-0.294l0.04-0.253l0.093-23.825
	C123.341,0.285,123.44,0.213,123.6,0.213z M125.667,2.96l0.093,8.092c0.507,0,1.662-0.44,3.467-1.32
	c1.467-0.978,2.199-2.035,2.199-3.173V6.266c0-1.68-1.666-2.769-4.999-3.266L125.667,2.96z"/>
<path fill="#FFFFFF" d="M136.159,0.146c0.436,0,1.014,0.084,1.733,0.253l0.04,6.186v17.239c0,0.649-0.143,0.974-0.427,0.974h-0.333
	c-0.693,0-1.254-0.125-1.681-0.374V0.4C135.572,0.231,135.793,0.146,136.159,0.146z"/>
<path fill="#FFFFFF" d="M145.278,0.067c3.004,0,4.866,0.689,5.586,2.066c0.587,0.835,1.031,2.284,1.334,4.346
	c0.435,3.102,0.653,5.64,0.653,7.613v0.68c0,4.826-1.449,7.995-4.347,9.506c-0.836,0.347-1.622,0.521-2.36,0.521h-0.267
	c-2.222,0-4.026-1.907-5.412-5.72c-0.979-3.324-1.467-6.55-1.467-9.679c0-4.871,1.564-7.897,4.692-9.08
	C144.402,0.151,144.931,0.067,145.278,0.067z M141.412,8.493c0,3.164,0.542,6.506,1.627,10.025c0.781,2.062,1.901,3.094,3.359,3.094
	c1.475-0.16,2.293-0.418,2.453-0.773c0.427-0.293,0.8-0.981,1.12-2.066c0.337-1.129,0.506-2.707,0.506-4.733v-0.08
	c0-4.23-0.399-7.399-1.199-9.505c-0.738-1.315-1.698-1.973-2.88-1.973h-0.134c-1.182,0.106-2.373,0.636-3.572,1.586
	c-0.552,0.444-0.938,1.218-1.16,2.32C141.452,7.222,141.412,7.924,141.412,8.493z"/>
<path fill="#FFFFFF" d="M154.557,0c0.667,0.053,1.24,0.169,1.72,0.347l-0.133,22.145c4.283-0.347,7.283-0.564,8.999-0.653
	c0.106,0,0.19,0.399,0.253,1.2c-0.018,0.889-0.075,1.333-0.173,1.333l-11.266,0.427l-0.04-0.04V0.507
	C153.917,0.169,154.13,0,154.557,0z"/>
<path fill="#FFFFFF" d="M167.103,0c0.666,0.053,1.239,0.169,1.72,0.347l-0.134,22.145c4.284-0.347,7.284-0.564,9-0.653
	c0.106,0,0.19,0.399,0.253,1.2c-0.019,0.889-0.075,1.333-0.173,1.333l-11.267,0.427l-0.04-0.04V0.507
	C166.462,0.169,166.676,0,167.103,0z"/>
<path fill="#FFFFFF" d="M183.103,0.067c3.004,0,4.866,0.689,5.587,2.066c0.586,0.835,1.03,2.284,1.333,4.346
	c0.435,3.102,0.653,5.64,0.653,7.613v0.68c0,4.826-1.449,7.995-4.347,9.506c-0.836,0.347-1.622,0.521-2.359,0.521h-0.267
	c-2.223,0-4.026-1.907-5.413-5.72c-0.979-3.324-1.467-6.55-1.467-9.679c0-4.871,1.564-7.897,4.693-9.08
	C182.228,0.151,182.756,0.067,183.103,0.067z M179.237,8.493c0,3.164,0.542,6.506,1.627,10.025c0.781,2.062,1.901,3.094,3.359,3.094
	c1.476-0.16,2.293-0.418,2.453-0.773c0.427-0.293,0.8-0.981,1.12-2.066c0.338-1.129,0.507-2.707,0.507-4.733v-0.08
	c0-4.23-0.4-7.399-1.2-9.505c-0.738-1.315-1.698-1.973-2.88-1.973h-0.133c-1.183,0.106-2.373,0.636-3.573,1.586
	c-0.552,0.444-0.938,1.218-1.16,2.32C179.277,7.222,179.237,7.924,179.237,8.493z"/>
</svg>
