<?xml version="1.0" encoding="utf-8"?>
<!-- Generator: Adobe Illustrator 15.0.0, SVG Export Plug-In . SVG Version: 6.00 Build 0)  -->
<!DOCTYPE svg PUBLIC "-//W3C//DTD SVG 1.1//EN" "http://www.w3.org/Graphics/SVG/1.1/DTD/svg11.dtd">
<svg version="1.1" id="Capa_1" xmlns="http://www.w3.org/2000/svg" xmlns:xlink="http://www.w3.org/1999/xlink" x="0px" y="0px"
	 width="270px" height="242.5px" viewBox="0 -92.5 270 242.5" enable-background="new 0 -92.5 270 242.5" xml:space="preserve">
<g>
	<g>
		<path fill="#363636" d="M166.343-87.999c-48.97,0-88.655,39.692-88.655,88.665c0,18.016,5.404,34.749,14.628,48.735h-5.962v13.011
			c-5.729-1.879-12.262-0.604-16.816,3.948L27.841,108.05c-6.452,6.441-6.452,16.887,0,23.338l7.77,7.779
			c6.452,6.442,16.906,6.442,23.348,0l41.697-41.689c1.807-1.808,3.056-3.948,3.849-6.218h2.467V66.378
			c15.722,14.221,36.503,22.948,59.371,22.948c48.97,0,88.662-39.69,88.662-88.662S215.314-87.999,166.343-87.999z M166.343,72.929
			c-39.917,0-72.254-32.347-72.254-72.264c0-39.918,32.337-72.265,72.254-72.265c39.92,0,72.255,32.347,72.255,72.265
			C238.598,40.583,206.25,72.929,166.343,72.929z"/>
		<path fill="#363636" d="M229.085,6.755c-5.032-14.611-24.641-42.232-62.751-42.232c-38.101,0-57.708,27.62-62.75,42.232
			c-1.626,4.715,0.877,9.856,5.594,11.483c4.706,1.608,9.857-0.877,11.483-5.592c0.028-0.073,0.623-1.689,1.888-4.093
			c3.66,20.945,21.82,36.91,43.812,36.91c21.955,0,40.108-15.91,43.806-36.809c1.145,2.204,1.742,3.749,1.824,4.002
			c1.301,3.732,4.804,6.082,8.556,6.082c0.975,0,1.977-0.162,2.945-0.497C228.227,16.611,230.719,11.47,229.085,6.755z
			 M166.369,37.935c-20.32,0-35.22-12.703-36.729-39.502c4.374-4.879,10.554-9.858,19.068-12.902
			c-3.517,4.084-5.711,9.333-5.711,15.134c0,12.885,10.453,23.337,23.337,23.337c12.885,0,23.338-10.453,23.338-23.337
			c0-5.81-2.204-11.068-5.718-15.153c8.792,3.126,15.099,8.304,19.489,13.328C201.825,26.894,186.646,37.935,166.369,37.935z"/>
	</g>
</g>
</svg>
