<?xml version="1.0" encoding="utf-8"?>
<!-- Generator: Adobe Illustrator 15.0.0, SVG Export Plug-In . SVG Version: 6.00 Build 0)  -->
<!DOCTYPE svg PUBLIC "-//W3C//DTD SVG 1.1//EN" "http://www.w3.org/Graphics/SVG/1.1/DTD/svg11.dtd">
<svg version="1.1" id="Capa_1" xmlns="http://www.w3.org/2000/svg" xmlns:xlink="http://www.w3.org/1999/xlink" x="0px" y="0px"
	 width="422.074px" height="422.074px" viewBox="0 0 422.074 422.074" enable-background="new 0 0 422.074 422.074"
	 xml:space="preserve">
<g>
	<g>
		<g>
			<path fill="#363636" d="M226.486,367.298H67.828V52.994h171.068v47.66c0,4.816,3.899,8.715,8.713,8.715h46.263l0.007,156.151
				c8.1,0.186,16,1.688,23.451,4.463V96.399c0-1.864-0.741-3.653-2.062-4.977L255.44,31.597c-1.319-1.318-3.108-2.06-4.976-2.06
				H65.483c-11.64,0-21.11,9.467-21.11,21.108v319.001c0,11.64,9.471,21.108,21.111,21.108h178.004
				C236.347,384.202,230.54,376.231,226.486,367.298z"/>
			<path fill="#363636" d="M377.701,297.566c0-3.944-1.535-7.651-4.323-10.444l-11.047-11.046c-2.79-2.788-6.497-4.323-10.439-4.323
				c-3.94,0-7.651,1.535-10.443,4.325l-16.859,16.856c-9.004-6.455-20.041-10.259-31.966-10.259
				c-30.335,0-54.927,24.594-54.927,54.931c0,30.334,24.592,54.928,54.927,54.928s54.928-24.596,54.928-54.928
				c0-1.23-0.043-2.449-0.124-3.659l25.944-25.943C376.166,305.219,377.701,301.509,377.701,297.566z M361.389,300.85l-52.833,52.83
				c-1.113,1.116-2.624,1.738-4.198,1.738h-0.001c-1.576,0-3.086-0.627-4.198-1.74l-24.482-24.52
				c-2.312-2.313-2.312-6.072,0.004-8.392l4.715-4.713c2.312-2.315,6.07-2.317,8.389-0.007l15.57,15.532l43.878-43.881
				c1.115-1.113,2.626-1.737,4.199-1.737c1.574,0,3.084,0.626,4.198,1.737l4.757,4.758
				C363.706,294.773,363.706,298.529,361.389,300.85z"/>
			<path fill="#363636" d="M191.346,123.239l-49.399,11.308l11.309-49.399c-17.308-4.341-36.396,0.254-49.933,13.791
				c-20.499,20.498-20.499,53.733,0,74.231c20.499,20.499,53.733,20.499,74.232,0C191.089,159.634,195.686,140.546,191.346,123.239z
				"/>
			<path fill="#363636" d="M191.817,84.677c-6.964-6.963-15.396-11.558-24.299-13.791l-11.309,49.398l49.399-11.309
				C203.375,100.072,198.78,91.64,191.817,84.677z"/>
			<g>
				<path fill="#363636" d="M106.219,244.499h18.055c4.999,0,9.066-4.067,9.066-9.067s-4.067-9.067-9.066-9.067h-18.055
					c-5,0-9.067,4.067-9.067,9.067S101.22,244.499,106.219,244.499z"/>
				<path fill="#363636" d="M175.875,259.906h-69.656c-5,0-9.067,4.066-9.067,9.067c0,4.998,4.067,9.067,9.067,9.067h69.657
					c5,0,9.066-4.067,9.066-9.067C184.941,263.972,180.875,259.906,175.875,259.906z"/>
				<path fill="#363636" d="M165.555,293.447h-59.335c-5,0-9.067,4.067-9.067,9.067c0,4.998,4.067,9.067,9.067,9.067h59.336
					c4.999,0,9.066-4.067,9.066-9.067C174.621,297.514,170.554,293.447,165.555,293.447z"/>
			</g>
		</g>
	</g>
</g>
</svg>
