<?xml version="1.0" encoding="utf-8"?>
<!-- Generator: Adobe Illustrator 15.0.0, SVG Export Plug-In . SVG Version: 6.00 Build 0)  -->
<!DOCTYPE svg PUBLIC "-//W3C//DTD SVG 1.1//EN" "http://www.w3.org/Graphics/SVG/1.1/DTD/svg11.dtd">
<svg version="1.1" id="Capa_1" xmlns="http://www.w3.org/2000/svg" xmlns:xlink="http://www.w3.org/1999/xlink" x="0px" y="0px"
	 width="438.536px" height="438.536px" viewBox="0 0 438.536 438.536" enable-background="new 0 0 438.536 438.536"
	 xml:space="preserve">
<g>
	<path fill="#363636" d="M400.93,37.607C397.857,34.535,394.22,33,390.016,33H48.525c-4.207,0-7.845,1.535-10.917,4.607
		c-3.072,3.072-4.607,6.709-4.607,10.914v341.491c0,4.203,1.535,7.844,4.607,10.914c3.074,3.071,6.713,4.611,10.917,4.611h341.491
		c4.204,0,7.841-1.54,10.914-4.611c3.071-3.069,4.605-6.709,4.605-10.914V48.521C405.534,44.314,404.002,40.68,400.93,37.607z
		 M203.75,327.922c0,2.267-0.727,4.124-2.182,5.582c-1.456,1.45-3.316,2.177-5.579,2.177H79.57c-2.265,0-4.123-0.727-5.579-2.177
		c-1.452-1.46-2.182-3.315-2.182-5.582V79.563c0-2.265,0.727-4.123,2.182-5.577c1.456-1.454,3.313-2.183,5.579-2.183h116.419
		c2.262,0,4.123,0.729,5.579,2.183c1.455,1.454,2.182,3.312,2.182,5.577V327.922z M366.733,234.79c0,2.265-0.727,4.125-2.181,5.575
		c-1.453,1.459-3.312,2.184-5.574,2.184H242.564c-2.274,0-4.127-0.727-5.582-2.184c-1.454-1.45-2.179-3.311-2.179-5.575V79.563
		c0-2.265,0.725-4.123,2.179-5.577c1.455-1.454,3.31-2.183,5.582-2.183h116.413c2.261,0,4.122,0.729,5.575,2.183
		c1.454,1.454,2.179,3.312,2.179,5.577L366.733,234.79L366.733,234.79z"/>
</g>
</svg>
