<?xml version="1.0" encoding="utf-8"?>
<!-- Generator: Adobe Illustrator 16.0.0, SVG Export Plug-In . SVG Version: 6.00 Build 0)  -->
<!DOCTYPE svg PUBLIC "-//W3C//DTD SVG 1.1//EN" "http://www.w3.org/Graphics/SVG/1.1/DTD/svg11.dtd">
<svg version="1.1" id="Capa_1" xmlns="http://www.w3.org/2000/svg" xmlns:xlink="http://www.w3.org/1999/xlink" x="0px" y="0px"
	 width="32px" height="32px" viewBox="290 380 32 32" enable-background="new 290 380 32 32" xml:space="preserve">
<g>
	<g>
		<path fill="#FFFFFF" d="M320.5,387.009c-1.067,0.473-2.213,0.794-3.416,0.937c1.229-0.736,2.169-1.903,2.615-3.289
			c-1.152,0.682-2.425,1.176-3.78,1.444c-1.085-1.158-2.629-1.879-4.342-1.879c-3.285,0-5.949,2.664-5.949,5.947
			c0,0.466,0.053,0.92,0.154,1.355c-4.943-0.249-9.327-2.617-12.261-6.216c-0.513,0.877-0.805,1.899-0.805,2.99
			c0,2.064,1.051,3.885,2.646,4.951c-0.975-0.033-1.892-0.301-2.694-0.747v0.074c0,2.881,2.051,5.286,4.771,5.833
			c-0.499,0.134-1.024,0.208-1.568,0.208c-0.384,0-0.755-0.037-1.12-0.11c0.757,2.365,2.954,4.085,5.556,4.132
			c-2.035,1.595-4.601,2.542-7.388,2.542c-0.48,0-0.953-0.028-1.419-0.081c2.633,1.69,5.759,2.677,9.119,2.677
			c10.943,0,16.925-9.064,16.925-16.925l-0.021-0.77C318.693,389.249,319.704,388.202,320.5,387.009z"/>
	</g>
</g>
</svg>
