<?xml version="1.0" encoding="utf-8"?>
<!-- Generator: Adobe Illustrator 15.0.0, SVG Export Plug-In . SVG Version: 6.00 Build 0)  -->
<!DOCTYPE svg PUBLIC "-//W3C//DTD SVG 1.1//EN" "http://www.w3.org/Graphics/SVG/1.1/DTD/svg11.dtd">
<svg version="1.1" id="Layer_1" xmlns="http://www.w3.org/2000/svg" xmlns:xlink="http://www.w3.org/1999/xlink" x="0px" y="0px"
	 width="289px" height="61px" viewBox="0 0 289 61" enable-background="new 0 0 289 61" xml:space="preserve">
<path fill="#FFFFFF" stroke="#000000" stroke-width="4" stroke-linecap="round" stroke-linejoin="round" stroke-miterlimit="10" d="
	M6.288,36.418"/>
<path fill="#FFFFFF" stroke="#000000" stroke-width="4" stroke-linecap="round" stroke-linejoin="round" stroke-miterlimit="10" d="
	M8.176,34.527"/>
<polygon fill="none" stroke="#FFFFFF" stroke-width="4" stroke-miterlimit="10" points="19.363,58.018 3.305,30.204 19.363,2.392 
	51.478,2.392 67.536,30.204 51.478,58.018 "/>
<polyline fill="none" stroke="#FFFFFF" stroke-width="5" stroke-miterlimit="10" points="27.916,16.752 19.122,4.825 5.333,28.333 
	35.667,28.333 20.065,55.945 "/>
<polyline fill="none" stroke="#FFFFFF" stroke-width="5" stroke-miterlimit="10" points="51.667,3 36.167,28.333 50.565,57.105 "/>
<g>
	<path fill="#FFFFFF" d="M81.623,16.946c4.121,0,6.24,2.465,6.24,6.778v0.848h-4.006v-1.118c0-1.925-0.771-2.658-2.119-2.658
		s-2.118,0.732-2.118,2.658c0,5.546,8.281,6.586,8.281,14.289c0,4.312-2.157,6.777-6.317,6.777c-4.159,0-6.316-2.465-6.316-6.777
		v-1.657h4.006v1.927c0,1.926,0.848,2.619,2.197,2.619c1.347,0,2.194-0.693,2.194-2.619c0-5.546-8.281-6.586-8.281-14.289
		C75.383,19.411,77.502,16.946,81.623,16.946z"/>
	<path fill="#FFFFFF" d="M89.979,23.724c0-4.313,2.273-6.779,6.433-6.779c4.16,0,6.432,2.465,6.432,6.779v14.019
		c0,4.312-2.272,6.777-6.432,6.777c-4.159,0-6.433-2.465-6.433-6.777V23.724z M94.217,38.014c0,1.926,0.847,2.658,2.195,2.658
		s2.195-0.732,2.195-2.658V23.455c0-1.925-0.848-2.658-2.195-2.658s-2.195,0.732-2.195,2.658V38.014z"/>
	<path fill="#FFFFFF" d="M109.814,29.232h5.47v3.852h-5.47v11.131h-4.236V17.253h11.207v3.852h-6.971V29.232z"/>
	<path fill="#FFFFFF" d="M117.593,17.253h13.096v3.852h-4.43v23.109h-4.236V21.105h-4.429L117.593,17.253L117.593,17.253z"/>
	<path fill="#FFFFFF" d="M141.934,29.849l-1.54,14.365h-5.815l-3.004-26.96h4.121l2.272,21.26l2.041-21.26h4.083l2.118,21.415
		l2.195-21.415h3.698l-3.005,26.96h-5.623L141.934,29.849z"/>
	<path fill="#FFFFFF" d="M167.354,44.214h-4.276l-0.732-4.891h-5.2l-0.731,4.891h-3.89l4.313-26.96h6.2L167.354,44.214z
		 M157.687,35.663h4.082l-2.041-13.634L157.687,35.663z"/>
	<path fill="#FFFFFF" d="M178.175,44.214c-0.231-0.692-0.386-1.116-0.386-3.312v-4.236c0-2.505-0.847-3.428-2.772-3.428h-1.463
		v10.977h-4.238V17.253h6.395c4.391,0,6.277,2.041,6.277,6.201v2.118c0,2.774-0.886,4.583-2.771,5.47
		c2.117,0.886,2.811,2.927,2.811,5.74v4.159c0,1.309,0.039,2.271,0.462,3.273H178.175z M173.554,21.105v8.281h1.655
		c1.577,0,2.541-0.692,2.541-2.85v-2.658c0-1.926-0.654-2.773-2.155-2.773H173.554z"/>
	<path fill="#FFFFFF" d="M189.036,28.615h5.816v3.852h-5.816v7.896h7.317v3.852H184.8v-26.96h11.554v3.852h-7.317V28.615z"/>
	<path fill="#FFFFFF" d="M209.9,17.991c0.33,0,0.493,0.046,0.493,0.142l-0.761,3.925c-0.322,0.15-0.618,0.226-0.891,0.226h-0.367
		c-0.208,0-0.371-0.758-0.496-2.273c-1.552,0.292-2.776,0.63-3.669,1.017c-1.403,0.743-2.341,1.686-2.811,2.825
		c-0.603,1.223-0.904,3.087-0.904,5.591v1.879c0,3.756,0.137,5.908,0.41,6.454c0.46,1.457,1.204,2.47,2.231,3.035
		c0.864,0.479,1.869,0.722,3.007,0.722c1.073,0,2.458-0.27,4.152-0.806c0.302,0.622,0.451,1.083,0.451,1.385v0.184
		c0,0.442-0.462,0.767-1.383,0.974c-1.592,0.631-3.099,0.946-4.521,0.946c-3.662,0-5.868-2.505-6.622-7.513
		c-0.151-1.3-0.227-2.57-0.227-3.813c0-2.579,0.296-5.935,0.891-10.068c0.093-0.629,0.617-1.45,1.567-2.457
		C202.354,18.781,205.504,17.991,209.9,17.991z"/>
	<path fill="#FFFFFF" d="M212.329,18.174h0.438c0.397,0,0.668,0.029,0.819,0.086l0.396-0.043c2.465,0,4.844,0.57,7.13,1.709
		c1.788,1.14,2.683,2.556,2.683,4.25v0.454c0,2.484-1.506,4.429-4.519,5.831l-0.493,0.17c2.984,6.995,4.475,11.001,4.475,12.018
		v0.127c-0.15,0.754-0.645,1.13-1.482,1.13h-0.128c-0.122-0.066-0.602-1.084-1.439-3.05l-4.35-9.462l-1.2,0.142l0.085,12.413
		c0,0.178-0.207,0.268-0.622,0.268h-0.184c-0.753,0-1.44-0.104-2.061-0.311l0.042-0.268l0.099-25.235
		C212.057,18.25,212.16,18.174,212.329,18.174z M214.519,21.083l0.099,8.572c0.536,0,1.76-0.466,3.67-1.398
		c1.554-1.036,2.33-2.155,2.33-3.361v-0.311c0-1.779-1.766-2.932-5.294-3.46L214.519,21.083z"/>
	<path fill="#FFFFFF" d="M226.21,18.104c0.461,0,1.073,0.091,1.836,0.269l0.042,6.552v18.26c0,0.688-0.15,1.03-0.452,1.03h-0.353
		c-0.735,0-1.327-0.132-1.779-0.396V18.373C225.589,18.193,225.822,18.104,226.21,18.104z"/>
	<path fill="#FFFFFF" d="M236.447,18.018c3.183,0,5.153,0.73,5.916,2.189c0.622,0.885,1.093,2.42,1.414,4.604
		c0.461,3.286,0.691,5.974,0.691,8.062v0.72c0,5.112-1.535,8.47-4.603,10.07c-0.887,0.366-1.72,0.55-2.5,0.55h-0.283
		c-2.354,0-4.265-2.019-5.732-6.058c-1.036-3.521-1.554-6.938-1.554-10.252c0-5.158,1.656-8.365,4.971-9.617
		C235.52,18.109,236.081,18.018,236.447,18.018z M232.353,26.943c0,3.352,0.576,6.892,1.724,10.619
		c0.827,2.185,2.014,3.276,3.559,3.276c1.562-0.17,2.429-0.443,2.598-0.819c0.452-0.31,0.848-1.039,1.188-2.188
		c0.357-1.195,0.536-2.865,0.536-5.012v-0.085c0-4.482-0.425-7.838-1.271-10.069c-0.782-1.394-1.799-2.09-3.05-2.09h-0.142
		c-1.253,0.112-2.514,0.673-3.784,1.68c-0.584,0.471-0.992,1.291-1.229,2.457C232.396,25.599,232.353,26.341,232.353,26.943z"/>
	<path fill="#FFFFFF" d="M246.854,17.948c0.706,0.058,1.313,0.179,1.822,0.368l-0.141,23.456c4.537-0.367,7.714-0.599,9.531-0.693
		c0.112,0,0.202,0.425,0.27,1.272c-0.02,0.941-0.082,1.412-0.185,1.412l-11.933,0.451l-0.042-0.042V18.484
		C246.177,18.127,246.402,17.948,246.854,17.948z"/>
	<path fill="#FFFFFF" d="M260.143,17.948c0.706,0.058,1.312,0.179,1.822,0.368l-0.141,23.456c4.537-0.367,7.713-0.599,9.531-0.693
		c0.112,0,0.201,0.425,0.268,1.272c-0.019,0.941-0.08,1.412-0.183,1.412l-11.934,0.451l-0.041-0.042V18.484
		C259.466,18.127,259.69,17.948,260.143,17.948z"/>
	<path fill="#FFFFFF" d="M277.668,18.018c3.182,0,5.155,0.73,5.918,2.189c0.621,0.885,1.091,2.42,1.411,4.604
		c0.462,3.286,0.692,5.974,0.692,8.062v0.72c0,5.112-1.534,8.47-4.604,10.07c-0.886,0.366-1.718,0.55-2.499,0.55h-0.283
		c-2.354,0-4.265-2.019-5.733-6.058c-1.035-3.521-1.553-6.938-1.553-10.252c0-5.158,1.657-8.365,4.971-9.617
		C276.742,18.109,277.303,18.018,277.668,18.018z M273.574,26.943c0,3.352,0.573,6.892,1.723,10.619
		c0.827,2.185,2.016,3.276,3.558,3.276c1.563-0.17,2.43-0.443,2.599-0.819c0.453-0.31,0.848-1.039,1.188-2.188
		c0.356-1.195,0.536-2.865,0.536-5.012v-0.085c0-4.482-0.424-7.838-1.271-10.069c-0.782-1.394-1.801-2.09-3.052-2.09h-0.141
		c-1.253,0.112-2.515,0.673-3.784,1.68c-0.583,0.471-0.993,1.291-1.229,2.457C273.615,25.599,273.574,26.341,273.574,26.943z"/>
</g>
</svg>
